<svg xmlns="http://www.w3.org/2000/svg" xmlns:xlink="http://www.w3.org/1999/xlink" width="26" viewBox="58 48 88 88" height="26" preserveAspectRatio="xMidYMid meet" version="1.0"><defs><g/><clipPath id="1e7ca240d9"><rect x="0" width="56" y="0" height="120"/></clipPath><clipPath id="101c9a349f"><path d="M 72 57 L 132 57 L 132 97 L 72 97 Z M 72 57 " clip-rule="nonzero"/></clipPath><clipPath id="e6ad1b05cc"><path d="M 70.320312 61.046875 L 129.585938 53.992188 L 133.996094 91.03125 L 74.730469 98.089844 Z M 70.320312 61.046875 " clip-rule="nonzero"/></clipPath><clipPath id="3c85d9a8e0"><path d="M 70.320312 61.046875 L 129.585938 53.992188 L 133.996094 91.03125 L 74.730469 98.089844 Z M 70.320312 61.046875 " clip-rule="nonzero"/></clipPath><clipPath id="6b4c983f60"><path d="M 86 69 L 120 69 L 120 85 L 86 85 Z M 86 69 " clip-rule="nonzero"/></clipPath><clipPath id="47a59f4f62"><path d="M 70.320312 61.046875 L 129.585938 53.992188 L 133.996094 91.03125 L 74.730469 98.089844 Z M 70.320312 61.046875 " clip-rule="nonzero"/></clipPath><clipPath id="348e8ec4be"><path d="M 70.320312 61.046875 L 129.585938 53.992188 L 133.996094 91.03125 L 74.730469 98.089844 Z M 70.320312 61.046875 " clip-rule="nonzero"/></clipPath></defs><g transform="matrix(1, 0, 0, 1, 79, 34)"><g clip-path="url(#1e7ca240d9)"><g fill="#ffffff" fill-opacity="1"><g transform="translate(1.246335, 94.730514)"><g><path d="M 18.484375 -22.4375 L 18.484375 -17.5 C 18.484375 -15.0625 19.320312 -13.015625 21 -11.359375 C 22.6875 -9.710938 25.210938 -8.890625 28.578125 -8.890625 C 31.140625 -8.890625 33.296875 -9.597656 35.046875 -11.015625 C 36.796875 -12.429688 38.097656 -14.296875 38.953125 -16.609375 L 49.421875 -13.34375 C 45.929688 -3.914062 38.617188 0.796875 27.484375 0.796875 C 23.992188 0.796875 20.8125 0.300781 17.9375 -0.6875 C 15.070312 -1.675781 12.617188 -3.078125 10.578125 -4.890625 C 8.535156 -6.703125 6.9375 -8.859375 5.78125 -11.359375 C 4.625 -13.867188 4.046875 -16.609375 4.046875 -19.578125 L 4.046875 -27.875 C 4.046875 -30.78125 4.585938 -33.484375 5.671875 -35.984375 C 6.765625 -38.484375 8.332031 -40.65625 10.375 -42.5 C 12.414062 -44.351562 14.851562 -45.804688 17.6875 -46.859375 C 20.53125 -47.910156 23.726562 -48.4375 27.28125 -48.4375 C 30.84375 -48.4375 34.003906 -47.910156 36.765625 -46.859375 C 39.535156 -45.804688 41.875 -44.375 43.78125 -42.5625 C 45.695312 -40.75 47.148438 -38.585938 48.140625 -36.078125 C 49.128906 -33.578125 49.625 -30.878906 49.625 -27.984375 L 49.625 -22.4375 Z M 36.078125 -30.75 C 36.078125 -32.851562 35.300781 -34.679688 33.75 -36.234375 C 32.207031 -37.785156 30.085938 -38.5625 27.390625 -38.5625 C 24.617188 -38.5625 22.441406 -37.800781 20.859375 -36.28125 C 19.273438 -34.757812 18.484375 -32.914062 18.484375 -30.75 L 18.484375 -27.6875 L 36.078125 -27.6875 Z M 36.078125 -30.75 "/></g></g></g></g></g><g clip-path="url(#101c9a349f)"><g clip-path="url(#e6ad1b05cc)"><g clip-path="url(#3c85d9a8e0)"><path fill="#ffffff" d="M 115.699219 61.089844 L 100.652344 57.5 L 100.476562 57.460938 L 100.316406 57.539062 L 86.53125 64.5625 L 72.429688 71.742188 L 75.660156 72.511719 L 79.390625 73.402344 C 78.792969 74.980469 78.40625 77.863281 79.964844 82.660156 C 79.253906 83.046875 78.816406 83.832031 78.917969 84.683594 C 78.988281 85.292969 79.324219 85.804688 79.792969 86.125 C 79.984375 91.484375 76.484375 92.648438 75.324219 92.886719 C 74.957031 92.960938 74.652344 93.246094 74.605469 93.617188 C 74.410156 95.199219 78.765625 96.253906 81.332031 96.738281 C 82.464844 96.949219 83.59375 96.300781 83.960938 95.207031 C 85.402344 90.941406 83.617188 87.242188 82.601562 85.613281 C 82.878906 85.21875 83.019531 84.722656 82.957031 84.203125 C 82.851562 83.308594 82.179688 82.621094 81.339844 82.449219 C 80.867188 80.53125 80.019531 76.253906 81.152344 73.824219 L 85.292969 74.808594 C 85.683594 72.453125 89.507812 71.175781 90.839844 70.730469 C 93.769531 69.753906 97.746094 68.933594 102.039062 68.421875 C 106.316406 67.914062 110.351562 67.777344 113.40625 68.039062 C 114.773438 68.15625 118.652344 68.488281 119.667969 70.578125 L 128.136719 66.265625 L 131.09375 64.757812 Z M 115.699219 61.089844 " fill-opacity="1" fill-rule="nonzero"/></g></g></g><g clip-path="url(#6b4c983f60)"><g clip-path="url(#47a59f4f62)"><g clip-path="url(#348e8ec4be)"><path fill="#ffffff" d="M 86.550781 75.351562 L 87.667969 84.703125 C 91.902344 81.117188 97.203125 78.691406 103.128906 77.984375 C 109.054688 77.28125 114.773438 78.394531 119.738281 80.882812 L 118.621094 71.511719 C 118.027344 66.542969 85.957031 70.378906 86.550781 75.351562 Z M 86.550781 75.351562 " fill-opacity="1" fill-rule="nonzero"/></g></g></g></svg>