<svg xmlns="http://www.w3.org/2000/svg" xml:space="preserve" style="enable-background:new 0 0 24 24" viewBox="0 0 24 24" id="blocked-voucher">
  <g id="Layer_2">
    <g>
      <path d="M14.62012,8.91992C14.74023,8.97998,14.87012,9,15,9c0.25977,0,0.51953-0.11035,0.70996-0.29004
			C15.88965,8.52002,16,8.25977,16,8c0-0.06006-0.00977-0.13037-0.02051-0.18994c-0.00977-0.07031-0.0293-0.13037-0.05957-0.19043
			C15.89941,7.56006,15.87012,7.5,15.83008,7.44971C15.7998,7.38965,15.75,7.33984,15.70996,7.29004
			c-0.28027-0.28027-0.71973-0.37012-1.08984-0.21045C14.5,7.12988,14.38965,7.19971,14.29004,7.29004
			C14.25,7.33984,14.2002,7.38965,14.16992,7.44971C14.12988,7.5,14.09961,7.56006,14.08008,7.61963
			c-0.03027,0.06006-0.0498,0.12012-0.06055,0.19043C14.00977,7.86963,14,7.93994,14,8c0,0.25977,0.10938,0.52002,0.29004,0.70996
			C14.38965,8.7998,14.5,8.86963,14.62012,8.91992z"></path>
      <path d="M20.02563,11.82733c0.0647-0.73914,0.51276-1.38666,1.2063-1.67303c0.40234-0.16602,0.65088-0.57373,0.61475-1.00732
			c-0.04248-0.50732-0.10596-1.01416-0.18799-1.50635c-0.22119-1.46582-1.40723-2.65967-2.95264-2.97119
			c-4.43945-0.88867-8.97119-0.88867-13.41357,0C3.74854,4.98096,2.5625,6.1748,2.34375,7.62549
			C2.25928,8.13281,2.1958,8.63965,2.15332,9.14697c-0.03613,0.43359,0.2124,0.84131,0.61475,1.00732
			C3.5166,10.46338,4,11.1875,4,12s-0.4834,1.53662-1.23193,1.8457c-0.40234,0.16602-0.65088,0.57373-0.61475,1.00732
			c0.04248,0.50732,0.10596,1.01416,0.18799,1.50635c0.22119,1.46582,1.40723,2.65967,2.95312,2.97119
			c2.15833,0.43164,4.34888,0.65216,6.5144,0.66461C12.84753,21.78827,14.78284,23,17,23c3.30859,0,6-2.69141,6-6
			C23,14.79553,21.80176,12.8703,20.02563,11.82733z M13.56683,19.0191c-0.08789-0.14874-0.17932-0.29535-0.24762-0.45557
			c-0.078-0.18726-0.13068-0.37946-0.17987-0.57214c-0.01599-0.06219-0.04376-0.11932-0.05682-0.18268
			C13.02777,17.54266,13,17.27246,13,17c0-2.20557,1.79443-4,4-4c0.27759,0,0.54773,0.02948,0.81036,0.08307
			c0.12793,0.02643,0.24609,0.07648,0.36926,0.11487c0.13495,0.04211,0.27325,0.07458,0.40283,0.13153
			c0.15314,0.06628,0.29407,0.15314,0.43665,0.23737L13.56683,19.0191z M11.08105,17.98633
			c-1.79639-0.05273-3.60645-0.25928-5.39307-0.6167c-0.72266-0.14551-1.27295-0.67188-1.37158-1.32422
			c-0.03955-0.2373-0.07422-0.4751-0.10303-0.7124C5.31787,14.60352,6,13.36328,6,12S5.31836,9.39648,4.21338,8.66699
			c0.0293-0.23975,0.06445-0.48145,0.10547-0.72754c0.09619-0.63721,0.64648-1.16357,1.36768-1.30908
			c4.18164-0.83691,8.44678-0.83691,12.62549,0c0.72266,0.14551,1.27295,0.67188,1.37158,1.32422
			c0.03955,0.2373,0.07422,0.4751,0.10303,0.7124c-0.85498,0.56494-1.45703,1.43555-1.68506,2.43262
			c-0.03253-0.00604-0.06714-0.00354-0.09985-0.00903C17.67523,11.03534,17.34198,11,17,11c-0.34137,0-0.67401,0.03528-1,0.09033
			v-0.0957c0-0.55225-0.44775-1-1-1s-1,0.44775-1,1v0.81714C12.20959,12.85114,11,14.78485,11,17
			c0,0.30151,0.0296,0.59552,0.07275,0.88519C11.0777,17.91864,11.07556,17.953,11.08105,17.98633z M17,21
			c-0.73956,0-1.42413-0.21545-2.0191-0.56683l5.45227-5.45227C20.78455,15.57587,21,16.26044,21,17C21,19.20557,19.20557,21,17,21z
			"></path>
    </g>
  </g>
</svg>
