<svg xmlns="http://www.w3.org/2000/svg" id="question-mark" viewBox="0 0 208.99 208.99">
  <g id="Layer_1-2">
    <path d="M111.89,149.67c.48.97.64,2.01.64,3.05,0,2.17-.81,4.18-2.33,5.71-1.53,1.52-3.54,2.33-5.71,2.33-1.04,0-2.09-.24-3.05-.64-.97-.4-1.85-.97-2.65-1.69-1.53-1.53-2.33-3.54-2.33-5.71,0-1.04.16-2.09.64-3.05.4-1.04.97-1.85,1.69-2.65,2.98-2.98,8.44-2.98,11.41,0,.72.8,1.29,1.69,1.69,2.65ZM208.99,104.5c0,57.62-46.88,104.5-104.5,104.5S0,162.12,0,104.5,46.88,0,104.5,0s104.5,46.88,104.5,104.5ZM192.92,104.5c0-48.76-39.67-88.42-88.42-88.42S16.08,55.74,16.08,104.5s39.67,88.42,88.42,88.42,88.42-39.67,88.42-88.42ZM110.26,48.74c-9.54-1.67-19.14.89-26.43,7.01-7.3,6.13-11.48,15.11-11.48,24.63,0,4.44,3.6,8.04,8.04,8.04s8.04-3.6,8.04-8.04c0-4.76,2.1-9.25,5.75-12.32,3.71-3.12,8.42-4.34,13.31-3.49,6.32,1.11,11.72,6.51,12.83,12.83,1.34,7.6-2.64,14.93-9.67,17.84-8.61,3.56-14.18,12.18-14.18,21.95v11.41c0,4.44,3.6,8.04,8.04,8.04s8.04-3.6,8.04-8.04v-11.41c0-3.19,1.7-6.04,4.24-7.09,14.06-5.81,22.02-20.41,19.37-35.49-2.28-12.96-12.92-23.61-25.89-25.88Z"></path>
  </g>
</svg>
