<svg xmlns="http://www.w3.org/2000/svg" id="journal" viewBox="0 0 1000 1000">
  <path d="M500,833.05a14,14,0,0,1-14-14V272.56a14,14,0,0,1,3.79-9.58c28.66-30.57,66.15-54.25,111.43-70.4,35.71-12.73,76.34-20.82,120.76-24.05,75.2-5.46,134.74,4.79,137.23,5.23a14,14,0,0,1,11.58,13.79V728.8a14,14,0,0,1-13.7,14c-2.33.05-235,6.08-348.94,87.65A14,14,0,0,1,500,833.05ZM514,278.2V793.38c50.22-29.32,119.61-51.21,206.78-65.19a1142.71,1142.71,0,0,1,122-12.86V199.67a617.21,617.21,0,0,0-119.42-3.17C659.65,201.21,572.26,219.27,514,278.2Z"></path>
  <path d="M570 326.15a14 14 0 0 1-6.3-26.51c74.73-37.6 162.8-43.2 223.52-41.28a14 14 0 1 1-.88 28c-57.49-1.82-140.58 3.36-210.06 38.32A14 14 0 0 1 570 326.15ZM570 417.23a14 14 0 0 1-6.3-26.51c74.73-37.6 162.8-43.2 223.52-41.28a14 14 0 1 1-.88 28c-57.49-1.82-140.58 3.36-210.06 38.32A14 14 0 0 1 570 417.23ZM570 508.32a14 14 0 0 1-6.3-26.51c74.75-37.62 162.81-43.22 223.53-41.28a14 14 0 0 1-.9 28c-57.46-1.82-140.55 3.34-210.05 38.32A14 14 0 0 1 570 508.32ZM570 599.4a14 14 0 0 1-6.3-26.51c74.75-37.62 162.81-43.22 223.53-41.28a14 14 0 0 1-.9 28c-57.46-1.82-140.55 3.34-210.05 38.32A14 14 0 0 1 570 599.4ZM570 690.48a14 14 0 0 1-6.3-26.51c74.73-37.6 162.8-43.2 223.52-41.28a14 14 0 1 1-.88 28C728.86 648.85 645.77 654 576.29 689A14 14 0 0 1 570 690.48ZM500 833.05a14 14 0 0 1-8.15-2.61c-114.09-81.64-346.61-87.6-348.94-87.65a14 14 0 0 1-13.7-14V187.55a14 14 0 0 1 11.58-13.79c2.49-.44 62-10.69 137.23-5.23 44.42 3.23 85.05 11.32 120.76 24.05 45.28 16.15 82.77 39.83 111.43 70.4a14 14 0 0 1 3.79 9.58V819.05a14 14 0 0 1-14 14ZM157.21 715.33a1142.71 1142.71 0 0 1 122 12.86c87.17 14 156.56 35.87 206.78 65.19V278.2c-58.4-59.07-146.08-77.1-210-81.74a615.17 615.17 0 0 0-118.78 3.2Z"></path>
  <path d="M430 326.15a14 14 0 0 1-6.28-1.49c-69.48-35-152.57-40.13-210.06-38.32a14 14 0 0 1-.88-28c60.71-1.92 148.79 3.68 223.52 41.28a14 14 0 0 1-6.3 26.51ZM430 417.23a14 14 0 0 1-6.28-1.49c-69.48-35-152.58-40.14-210.06-38.32a14 14 0 1 1-.88-28c60.71-1.92 148.79 3.68 223.52 41.28a14 14 0 0 1-6.3 26.51ZM430 508.32a14 14 0 0 1-6.28-1.49c-69.5-35-152.59-40.14-210-38.32a14 14 0 0 1-.9-28c60.72-1.93 148.78 3.66 223.53 41.28a14 14 0 0 1-6.3 26.51ZM430 599.4a14 14 0 0 1-6.28-1.49c-69.5-35-152.58-40.14-210-38.32a14 14 0 0 1-.9-28c60.72-1.93 148.78 3.66 223.53 41.28A14 14 0 0 1 430 599.4ZM430 690.48a14 14 0 0 1-6.28-1.49c-69.48-35-152.58-40.14-210.06-38.32a14 14 0 0 1-.88-28c60.71-1.92 148.79 3.68 223.52 41.28a14 14 0 0 1-6.3 26.51Z"></path>
  <path d="M925,833.05H75a14,14,0,0,1-14-14V242.56a14,14,0,0,1,14-14h68.21a14,14,0,0,1,0,28H89V805.05H911V256.56H856.79a14,14,0,0,1,0-28H925a14,14,0,0,1,14,14V819.05A14,14,0,0,1,925,833.05Z"></path>
</svg>
