<svg xmlns="http://www.w3.org/2000/svg" id="user-profile" width="32" height="32" version="1.1" viewBox="0 0 32 32">
  <g id="layer1" transform="translate(-1596)">
    <path id="path450" d="m 1612,2.0781331 c -7.7202,0 -14,6.279859 -14,13.9999689 0,6.89316 5.0365,12.77141 11.8476,13.83201 a 0.99999805,0.99999805 0 0 0 1.1406,-0.83204 0.99999805,0.99999805 0 0 0 -0.8359,-1.14452 c -1.1134,-0.1734 -2.1702,-0.4964 -3.1523,-0.94531 v -1.91016 c 0,-2.77326 2.2267,-4.99999 5,-4.99999 2.7732,0 5,2.22673 5,4.99999 v 1.91016 c -0.982,0.44891 -2.039,0.77195 -3.1524,0.94531 a 0.99999805,0.99999805 0 0 0 -0.8359,1.14452 0.99999805,0.99999805 0 0 0 1.1406,0.83204 c 6.811,-1.0606 11.8477,-6.93885 11.8477,-13.83201 0,-7.7201099 -6.2799,-13.9999689 -14,-13.9999689 z m 0,1.999995 c 6.6392,0 12,5.3607439 12,11.9999739 0,3.98167 -1.9473,7.5539 -5,9.74608 v -0.7461 c 0,-3.85411 -3.1459,-6.99999 -7,-6.99999 -3.8542,0 -7,3.14588 -7,6.99999 v 0.7461 c -3.0528,-2.19218 -5,-5.76441 -5,-9.74608 0,-6.63923 5.3607,-11.9999739 12,-11.9999739 z m 0,2.999984 c -2.7497,0 -5,2.2504399 -5,4.9999899 0,2.74958 2.2503,4.99999 5,4.99999 2.7496,0 5,-2.25041 5,-4.99999 0,-2.74955 -2.2504,-4.9999899 -5,-4.9999899 z m 0,2 c 1.6687,0 3,1.3313199 3,2.9999899 0,1.6687 -1.3313,3 -3,3 -1.6686,0 -3,-1.3313 -3,-3 0,-1.66867 1.3314,-2.9999899 3,-2.9999899 z" style="color:#000;fill:#000;stroke-width:1;stroke-linecap:round;stroke-linejoin:round;-inkscape-stroke:none"></path>
  </g>
</svg>
